<svg xmlns="http://www.w3.org/2000/svg" width="42.55" height="42.55" viewBox="0 0 42.55 42.55">
  <path id="Icon_ionic-ios-settings" data-name="Icon ionic-ios-settings" d="M43.537,25.769a5.474,5.474,0,0,1,3.513-5.107,21.694,21.694,0,0,0-2.626-6.325,5.55,5.55,0,0,1-2.227.476,5.462,5.462,0,0,1-5-7.688A21.641,21.641,0,0,0,30.883,4.5a5.471,5.471,0,0,1-10.216,0A21.706,21.706,0,0,0,14.34,7.125a5.462,5.462,0,0,1-5,7.688,5.369,5.369,0,0,1-2.227-.476A22.174,22.174,0,0,0,4.5,20.674a5.472,5.472,0,0,1,.011,10.214,21.7,21.7,0,0,0,2.626,6.325,5.465,5.465,0,0,1,7.214,7.212,21.833,21.833,0,0,0,6.327,2.625,5.461,5.461,0,0,1,10.194,0A21.706,21.706,0,0,0,37.2,44.425a5.471,5.471,0,0,1,7.214-7.212,21.821,21.821,0,0,0,2.626-6.325A5.5,5.5,0,0,1,43.537,25.769ZM25.875,34.621a8.862,8.862,0,1,1,8.865-8.862A8.861,8.861,0,0,1,25.875,34.621Z" transform="translate(-4.5 -4.5)" fill="#fff"/>
</svg>
